<svg width="456.795" height="456.795" xmlns="http://www.w3.org/2000/svg">

 <g>
  <title>background</title>
  <rect fill="none" id="canvas_background" height="402" width="582" y="-1" x="-1"/>
 </g>
 <g>
  <title>Layer 1</title>
  <g id="svg_1">
   <g id="svg_2">
    <path id="svg_3" d="m448.947,218.475c-0.922,-1.168 -23.055,-28.933 -61,-56.81c-50.705,-37.253 -105.877,-56.944 -159.551,-56.944c-53.672,0 -108.844,19.691 -159.551,56.944c-37.944,27.876 -60.077,55.642 -61,56.81l-7.845,9.922l7.846,9.923c0.923,1.168 23.056,28.934 61,56.811c50.707,37.252 105.879,56.943 159.551,56.943c53.673,0 108.845,-19.691 159.55,-56.943c37.945,-27.877 60.078,-55.643 61,-56.811l7.848,-9.923l-7.848,-9.922zm-220.551,96.564c-47.774,0 -86.642,-38.867 -86.642,-86.642c0,-7.485 0.954,-14.751 2.747,-21.684l-19.781,-3.329c-1.938,8.025 -2.966,16.401 -2.966,25.013c0,30.86 13.182,58.696 34.204,78.187c-27.061,-9.996 -50.072,-24.023 -67.439,-36.709c-21.516,-15.715 -37.641,-31.609 -46.834,-41.478c9.197,-9.872 25.32,-25.764 46.834,-41.478c17.367,-12.686 40.379,-26.713 67.439,-36.71l13.27,14.958c15.498,-14.512 36.312,-23.412 59.168,-23.412c47.774,0 86.641,38.867 86.641,86.642c0,47.775 -38.867,86.642 -86.641,86.642zm139.877,-45.164c-17.369,12.686 -40.379,26.713 -67.439,36.709c21.021,-19.49 34.203,-47.326 34.203,-78.188s-13.182,-58.697 -34.203,-78.188c27.061,9.997 50.07,24.024 67.439,36.71c21.516,15.715 37.641,31.609 46.834,41.477c-9.197,9.874 -25.32,25.767 -46.834,41.48z"
          fill="#ffffff"/>
    <path id="svg_4" d="m173.261,211.555c-1.626,5.329 -2.507,10.982 -2.507,16.843c0,31.834 25.807,57.642 57.642,57.642c31.834,0 57.641,-25.807 57.641,-57.642s-25.807,-57.642 -57.641,-57.642c-15.506,0 -29.571,6.134 -39.932,16.094l28.432,32.048l-43.635,-7.343z" fill="#ffffff"/>
   </g>
  </g>
  <g id="svg_5"/>
  <g id="svg_6"/>
  <g id="svg_7"/>
  <g id="svg_8"/>
  <g id="svg_9"/>
  <g id="svg_10"/>
  <g id="svg_11"/>
  <g id="svg_12"/>
  <g id="svg_13"/>
  <g id="svg_14"/>
  <g id="svg_15"/>
  <g id="svg_16"/>
  <g id="svg_17"/>
  <g id="svg_18"/>
  <g id="svg_19"/>
  <rect stroke="null" transform="rotate(-45 228.3975067138673,230.3350219726563) " id="svg_20" height="27.786806" width="456.864992" y="216.441619" x="-0.034986" stroke-opacity="null" stroke-width="NaN" fill="#ffffff"/>
 </g>
</svg>
