<svg width="22.258" height="22.258" xmlns="http://www.w3.org/2000/svg">

 <g>
  <title>background</title>
  <rect fill="none" id="canvas_background" height="402" width="582" y="-1" x="-1"/>
 </g>
 <g>
  <title>Layer 1</title>
  <g id="svg_1">
   <path fill="#ffffff" id="svg_2" d="m5.366,2.973c0,1.376 -1.035,2.479 -2.699,2.479l-0.031,0c-1.602,0.001 -2.636,-1.104 -2.636,-2.479c0,-1.409 1.067,-2.482 2.698,-2.482c1.633,-0.001 2.638,1.073 2.668,2.482zm-5.086,18.793l4.772,0l0,-14.353l-4.772,0l0,14.353zm16.484,-14.689c-2.531,0 -3.664,1.39 -4.301,2.37l0,0.046l-0.031,0c0.012,-0.014 0.023,-0.03 0.031,-0.046l0,-2.033l-4.771,0c0.062,1.345 0,14.353 0,14.353l4.771,0l0,-8.016c0,-0.432 0.029,-0.855 0.157,-1.164c0.346,-0.854 1.132,-1.747 2.446,-1.747c1.729,0 2.42,1.319 2.42,3.247l0,7.68l4.771,0l0,-8.229c0.001,-4.412 -2.355,-6.461 -5.493,-6.461z"/>
  </g>
  <g id="svg_3"/>
  <g id="svg_4"/>
  <g id="svg_5"/>
  <g id="svg_6"/>
  <g id="svg_7"/>
  <g id="svg_8"/>
  <g id="svg_9"/>
  <g id="svg_10"/>
  <g id="svg_11"/>
  <g id="svg_12"/>
  <g id="svg_13"/>
  <g id="svg_14"/>
  <g id="svg_15"/>
  <g id="svg_16"/>
  <g id="svg_17"/>
 </g>
</svg>